<mxfile host="app.diagrams.net" modified="2023-03-09T06:50:35.886Z" agent="5.0 (Windows NT 10.0; Win64; x64) AppleWebKit/537.36 (KHTML, like Gecko) Chrome/110.0.0.0 Safari/537.36" etag="LH95fRZajS88WjtuvJ6G" version="21.0.4" type="github">
  <diagram name="Page-1" id="2YBvvXClWsGukQMizWep">
    <mxGraphModel dx="1195" dy="637" grid="1" gridSize="10" guides="1" tooltips="1" connect="1" arrows="1" fold="1" page="1" pageScale="1" pageWidth="850" pageHeight="1100" math="0" shadow="0">
      <root>
        <mxCell id="0" />
        <mxCell id="1" parent="0" />
        <mxCell id="5XuNz84cgK7RM7en4Wda-1" value="To-Do 조회 / 작성 / 수정 / 완료 / 삭제 기능" style="text;strokeColor=none;fillColor=none;html=1;fontSize=24;fontStyle=1;verticalAlign=middle;align=center;" vertex="1" parent="1">
          <mxGeometry x="375" y="50" width="100" height="40" as="geometry" />
        </mxCell>
        <mxCell id="5XuNz84cgK7RM7en4Wda-2" value="시스템" style="shape=umlLifeline;perimeter=lifelinePerimeter;whiteSpace=wrap;html=1;container=1;collapsible=0;recursiveResize=0;outlineConnect=0;rounded=1;shadow=0;comic=0;labelBackgroundColor=none;strokeWidth=1;fontFamily=Verdana;fontSize=12;align=center;" vertex="1" parent="1">
          <mxGeometry x="360" y="109" width="100" height="1491" as="geometry" />
        </mxCell>
        <mxCell id="5XuNz84cgK7RM7en4Wda-18" value="" style="endArrow=classic;html=1;rounded=0;" edge="1" parent="5XuNz84cgK7RM7en4Wda-2" target="5XuNz84cgK7RM7en4Wda-7">
          <mxGeometry width="50" height="50" relative="1" as="geometry">
            <mxPoint x="50" y="201" as="sourcePoint" />
            <mxPoint x="-40" y="201" as="targetPoint" />
          </mxGeometry>
        </mxCell>
        <mxCell id="5XuNz84cgK7RM7en4Wda-20" value="" style="endArrow=classic;html=1;rounded=0;" edge="1" parent="5XuNz84cgK7RM7en4Wda-2">
          <mxGeometry width="50" height="50" relative="1" as="geometry">
            <mxPoint x="-250" y="301" as="sourcePoint" />
            <mxPoint x="50" y="301" as="targetPoint" />
          </mxGeometry>
        </mxCell>
        <mxCell id="5XuNz84cgK7RM7en4Wda-21" value="5. 일자 선택 및 To-Do 작성 요청" style="edgeLabel;html=1;align=left;verticalAlign=middle;resizable=0;points=[];fontSize=13;fontStyle=1" vertex="1" connectable="0" parent="5XuNz84cgK7RM7en4Wda-20">
          <mxGeometry x="-0.2454" y="4" relative="1" as="geometry">
            <mxPoint x="-113" y="-6" as="offset" />
          </mxGeometry>
        </mxCell>
        <mxCell id="5XuNz84cgK7RM7en4Wda-22" value="" style="endArrow=classic;html=1;rounded=0;" edge="1" parent="5XuNz84cgK7RM7en4Wda-2">
          <mxGeometry width="50" height="50" relative="1" as="geometry">
            <mxPoint x="50" y="361" as="sourcePoint" />
            <mxPoint x="-250" y="361" as="targetPoint" />
          </mxGeometry>
        </mxCell>
        <mxCell id="5XuNz84cgK7RM7en4Wda-23" value="6. To-Do 작성 폼 전달" style="edgeLabel;html=1;align=right;verticalAlign=middle;resizable=0;points=[];fontSize=13;fontStyle=1" vertex="1" connectable="0" parent="5XuNz84cgK7RM7en4Wda-2">
          <mxGeometry x="50" y="351" as="geometry" />
        </mxCell>
        <mxCell id="5XuNz84cgK7RM7en4Wda-36" value="" style="endArrow=classic;html=1;rounded=0;" edge="1" parent="5XuNz84cgK7RM7en4Wda-2">
          <mxGeometry width="50" height="50" relative="1" as="geometry">
            <mxPoint x="-250" y="611" as="sourcePoint" />
            <mxPoint x="50" y="611" as="targetPoint" />
          </mxGeometry>
        </mxCell>
        <mxCell id="5XuNz84cgK7RM7en4Wda-37" value="11. 특정 To-Do 정보 선택 및 수정 요청" style="edgeLabel;html=1;align=left;verticalAlign=middle;resizable=0;points=[];fontSize=13;fontStyle=1" vertex="1" connectable="0" parent="5XuNz84cgK7RM7en4Wda-36">
          <mxGeometry x="-0.2454" y="4" relative="1" as="geometry">
            <mxPoint x="-113" y="-6" as="offset" />
          </mxGeometry>
        </mxCell>
        <mxCell id="5XuNz84cgK7RM7en4Wda-44" value="" style="endArrow=classic;html=1;rounded=0;" edge="1" parent="5XuNz84cgK7RM7en4Wda-2">
          <mxGeometry width="50" height="50" relative="1" as="geometry">
            <mxPoint x="50" y="721" as="sourcePoint" />
            <mxPoint x="-250" y="721" as="targetPoint" />
          </mxGeometry>
        </mxCell>
        <mxCell id="5XuNz84cgK7RM7en4Wda-45" value="14. To-Do 수정 폼 전달" style="edgeLabel;html=1;align=right;verticalAlign=middle;resizable=0;points=[];fontSize=13;fontStyle=1" vertex="1" connectable="0" parent="5XuNz84cgK7RM7en4Wda-2">
          <mxGeometry x="50" y="711" as="geometry" />
        </mxCell>
        <mxCell id="5XuNz84cgK7RM7en4Wda-75" value="16. To-Do 레코드 수정" style="edgeLabel;html=1;align=left;verticalAlign=middle;resizable=0;points=[];fontSize=13;fontStyle=1" vertex="1" connectable="0" parent="5XuNz84cgK7RM7en4Wda-2">
          <mxGeometry x="50" y="801" as="geometry" />
        </mxCell>
        <mxCell id="5XuNz84cgK7RM7en4Wda-4" value="DB" style="shape=umlLifeline;perimeter=lifelinePerimeter;whiteSpace=wrap;html=1;container=1;collapsible=0;recursiveResize=0;outlineConnect=0;rounded=1;shadow=0;comic=0;labelBackgroundColor=none;strokeWidth=1;fontFamily=Verdana;fontSize=12;align=center;" vertex="1" parent="1">
          <mxGeometry x="690" y="109" width="100" height="1491" as="geometry" />
        </mxCell>
        <mxCell id="5XuNz84cgK7RM7en4Wda-14" value="" style="endArrow=classic;html=1;rounded=0;" edge="1" parent="5XuNz84cgK7RM7en4Wda-4" target="5XuNz84cgK7RM7en4Wda-2">
          <mxGeometry width="50" height="50" relative="1" as="geometry">
            <mxPoint x="50" y="171" as="sourcePoint" />
            <mxPoint x="-50" y="171" as="targetPoint" />
          </mxGeometry>
        </mxCell>
        <mxCell id="5XuNz84cgK7RM7en4Wda-15" value="3. To-Do 레코드 전달" style="edgeLabel;html=1;align=right;verticalAlign=middle;resizable=0;points=[];fontSize=13;fontStyle=1" vertex="1" connectable="0" parent="5XuNz84cgK7RM7en4Wda-4">
          <mxGeometry x="48" y="161" as="geometry" />
        </mxCell>
        <mxCell id="5XuNz84cgK7RM7en4Wda-40" value="" style="endArrow=classic;html=1;rounded=0;" edge="1" parent="5XuNz84cgK7RM7en4Wda-4">
          <mxGeometry width="50" height="50" relative="1" as="geometry">
            <mxPoint x="50" y="691" as="sourcePoint" />
            <mxPoint x="-280" y="691" as="targetPoint" />
          </mxGeometry>
        </mxCell>
        <mxCell id="5XuNz84cgK7RM7en4Wda-41" value="13. To-Do 레코드 전달" style="edgeLabel;html=1;align=right;verticalAlign=middle;resizable=0;points=[];fontSize=13;fontStyle=1" vertex="1" connectable="0" parent="5XuNz84cgK7RM7en4Wda-4">
          <mxGeometry x="48" y="681" as="geometry" />
        </mxCell>
        <mxCell id="5XuNz84cgK7RM7en4Wda-7" value="유저" style="shape=umlLifeline;perimeter=lifelinePerimeter;whiteSpace=wrap;html=1;container=1;collapsible=0;recursiveResize=0;outlineConnect=0;rounded=1;shadow=0;comic=0;labelBackgroundColor=none;strokeWidth=1;fontFamily=Verdana;fontSize=12;align=center;" vertex="1" parent="1">
          <mxGeometry x="60" y="109" width="100" height="1491" as="geometry" />
        </mxCell>
        <mxCell id="5XuNz84cgK7RM7en4Wda-8" value="" style="endArrow=classic;html=1;rounded=0;" edge="1" parent="1" target="5XuNz84cgK7RM7en4Wda-2">
          <mxGeometry width="50" height="50" relative="1" as="geometry">
            <mxPoint x="110" y="200" as="sourcePoint" />
            <mxPoint x="260" y="200" as="targetPoint" />
          </mxGeometry>
        </mxCell>
        <mxCell id="5XuNz84cgK7RM7en4Wda-11" value="1. To-Do 조회 요청 (전체 / 단일)" style="edgeLabel;html=1;align=center;verticalAlign=middle;resizable=0;points=[];fontSize=13;fontStyle=1" vertex="1" connectable="0" parent="5XuNz84cgK7RM7en4Wda-8">
          <mxGeometry x="-0.2454" y="4" relative="1" as="geometry">
            <mxPoint x="-20" y="-6" as="offset" />
          </mxGeometry>
        </mxCell>
        <mxCell id="5XuNz84cgK7RM7en4Wda-9" value="" style="endArrow=classic;html=1;rounded=0;" edge="1" parent="1" target="5XuNz84cgK7RM7en4Wda-4">
          <mxGeometry width="50" height="50" relative="1" as="geometry">
            <mxPoint x="410" y="230" as="sourcePoint" />
            <mxPoint x="710" y="230" as="targetPoint" />
          </mxGeometry>
        </mxCell>
        <mxCell id="5XuNz84cgK7RM7en4Wda-12" value="2. To-Do 레코드 조회" style="edgeLabel;html=1;align=center;verticalAlign=middle;resizable=0;points=[];fontSize=13;fontStyle=1" vertex="1" connectable="0" parent="1">
          <mxGeometry x="475" y="220" as="geometry" />
        </mxCell>
        <mxCell id="5XuNz84cgK7RM7en4Wda-19" value="4. To-Do 단일 / 리스트 페이지 제공 (전체 / 단일)" style="edgeLabel;html=1;align=right;verticalAlign=middle;resizable=0;points=[];fontSize=13;fontStyle=1" vertex="1" connectable="0" parent="1">
          <mxGeometry x="410" y="300" as="geometry" />
        </mxCell>
        <mxCell id="5XuNz84cgK7RM7en4Wda-24" value="" style="endArrow=classic;html=1;rounded=0;" edge="1" parent="1">
          <mxGeometry width="50" height="50" relative="1" as="geometry">
            <mxPoint x="110" y="520" as="sourcePoint" />
            <mxPoint x="410" y="520" as="targetPoint" />
          </mxGeometry>
        </mxCell>
        <mxCell id="5XuNz84cgK7RM7en4Wda-25" value="7. To-Do 작성" style="edgeLabel;html=1;align=left;verticalAlign=middle;resizable=0;points=[];fontSize=13;fontStyle=1" vertex="1" connectable="0" parent="5XuNz84cgK7RM7en4Wda-24">
          <mxGeometry x="-0.2454" y="4" relative="1" as="geometry">
            <mxPoint x="-113" y="-6" as="offset" />
          </mxGeometry>
        </mxCell>
        <mxCell id="5XuNz84cgK7RM7en4Wda-26" value="" style="endArrow=classic;html=1;rounded=0;" edge="1" parent="1">
          <mxGeometry width="50" height="50" relative="1" as="geometry">
            <mxPoint x="410" y="540" as="sourcePoint" />
            <mxPoint x="740" y="540" as="targetPoint" />
          </mxGeometry>
        </mxCell>
        <mxCell id="5XuNz84cgK7RM7en4Wda-27" value="8. To-Do 레코드 생성" style="edgeLabel;html=1;align=left;verticalAlign=middle;resizable=0;points=[];fontSize=13;fontStyle=1" vertex="1" connectable="0" parent="1">
          <mxGeometry x="410" y="530" as="geometry" />
        </mxCell>
        <mxCell id="5XuNz84cgK7RM7en4Wda-30" value="" style="endArrow=classic;html=1;rounded=0;" edge="1" parent="1">
          <mxGeometry width="50" height="50" relative="1" as="geometry">
            <mxPoint x="740" y="590" as="sourcePoint" />
            <mxPoint x="410" y="590" as="targetPoint" />
          </mxGeometry>
        </mxCell>
        <mxCell id="5XuNz84cgK7RM7en4Wda-31" value="9. To-Do 생성 완료" style="edgeLabel;html=1;align=right;verticalAlign=middle;resizable=0;points=[];fontSize=13;fontStyle=1" vertex="1" connectable="0" parent="1">
          <mxGeometry x="738" y="580" as="geometry" />
        </mxCell>
        <mxCell id="5XuNz84cgK7RM7en4Wda-32" value="" style="endArrow=classic;html=1;rounded=0;" edge="1" parent="1">
          <mxGeometry width="50" height="50" relative="1" as="geometry">
            <mxPoint x="410" y="620" as="sourcePoint" />
            <mxPoint x="110" y="620" as="targetPoint" />
          </mxGeometry>
        </mxCell>
        <mxCell id="5XuNz84cgK7RM7en4Wda-33" value="10. To-Do 전체 리스트 페이지 리다이렉션" style="edgeLabel;html=1;align=right;verticalAlign=middle;resizable=0;points=[];fontSize=13;fontStyle=1" vertex="1" connectable="0" parent="1">
          <mxGeometry x="410" y="610" as="geometry" />
        </mxCell>
        <mxCell id="5XuNz84cgK7RM7en4Wda-34" value="작성" style="shape=umlFrame;whiteSpace=wrap;html=1;pointerEvents=0;fillColor=#dae8fc;strokeColor=#6c8ebf;" vertex="1" parent="1">
          <mxGeometry x="50" y="380" width="730" height="270" as="geometry" />
        </mxCell>
        <mxCell id="5XuNz84cgK7RM7en4Wda-35" value="조회" style="shape=umlFrame;whiteSpace=wrap;html=1;pointerEvents=0;fillColor=#d5e8d4;strokeColor=#82b366;" vertex="1" parent="1">
          <mxGeometry x="50" y="180" width="730" height="190" as="geometry" />
        </mxCell>
        <mxCell id="5XuNz84cgK7RM7en4Wda-38" value="" style="endArrow=classic;html=1;rounded=0;" edge="1" parent="1">
          <mxGeometry width="50" height="50" relative="1" as="geometry">
            <mxPoint x="410" y="750" as="sourcePoint" />
            <mxPoint x="740" y="750" as="targetPoint" />
          </mxGeometry>
        </mxCell>
        <mxCell id="5XuNz84cgK7RM7en4Wda-39" value="12. 특정 To-Do 레코드 조회" style="edgeLabel;html=1;align=left;verticalAlign=middle;resizable=0;points=[];fontSize=13;fontStyle=1" vertex="1" connectable="0" parent="1">
          <mxGeometry x="410" y="740" as="geometry" />
        </mxCell>
        <mxCell id="5XuNz84cgK7RM7en4Wda-72" value="" style="endArrow=classic;html=1;rounded=0;" edge="1" parent="1">
          <mxGeometry width="50" height="50" relative="1" as="geometry">
            <mxPoint x="110" y="890" as="sourcePoint" />
            <mxPoint x="410" y="890" as="targetPoint" />
          </mxGeometry>
        </mxCell>
        <mxCell id="5XuNz84cgK7RM7en4Wda-73" value="15. To-Do 수정" style="edgeLabel;html=1;align=left;verticalAlign=middle;resizable=0;points=[];fontSize=13;fontStyle=1" vertex="1" connectable="0" parent="5XuNz84cgK7RM7en4Wda-72">
          <mxGeometry x="-0.2454" y="4" relative="1" as="geometry">
            <mxPoint x="-113" y="-6" as="offset" />
          </mxGeometry>
        </mxCell>
        <mxCell id="5XuNz84cgK7RM7en4Wda-74" value="" style="endArrow=classic;html=1;rounded=0;" edge="1" parent="1">
          <mxGeometry width="50" height="50" relative="1" as="geometry">
            <mxPoint x="410" y="920" as="sourcePoint" />
            <mxPoint x="740" y="920" as="targetPoint" />
          </mxGeometry>
        </mxCell>
        <mxCell id="5XuNz84cgK7RM7en4Wda-76" value="" style="endArrow=classic;html=1;rounded=0;" edge="1" parent="1">
          <mxGeometry width="50" height="50" relative="1" as="geometry">
            <mxPoint x="740" y="965" as="sourcePoint" />
            <mxPoint x="410" y="965" as="targetPoint" />
          </mxGeometry>
        </mxCell>
        <mxCell id="5XuNz84cgK7RM7en4Wda-77" value="17. To-Do 수정 완료" style="edgeLabel;html=1;align=right;verticalAlign=middle;resizable=0;points=[];fontSize=13;fontStyle=1" vertex="1" connectable="0" parent="1">
          <mxGeometry x="738" y="955" as="geometry" />
        </mxCell>
        <mxCell id="5XuNz84cgK7RM7en4Wda-78" value="" style="endArrow=classic;html=1;rounded=0;" edge="1" parent="1">
          <mxGeometry width="50" height="50" relative="1" as="geometry">
            <mxPoint x="410" y="1000" as="sourcePoint" />
            <mxPoint x="110" y="1000" as="targetPoint" />
          </mxGeometry>
        </mxCell>
        <mxCell id="5XuNz84cgK7RM7en4Wda-79" value="18. To-Do 단일 페이지 리다이렉션" style="edgeLabel;html=1;align=right;verticalAlign=middle;resizable=0;points=[];fontSize=13;fontStyle=1" vertex="1" connectable="0" parent="1">
          <mxGeometry x="410" y="990" as="geometry" />
        </mxCell>
        <mxCell id="5XuNz84cgK7RM7en4Wda-81" value="수정" style="shape=umlFrame;whiteSpace=wrap;html=1;pointerEvents=0;fillColor=#ffe6cc;strokeColor=#d79b00;" vertex="1" parent="1">
          <mxGeometry x="49" y="680" width="730" height="342" as="geometry" />
        </mxCell>
        <mxCell id="5XuNz84cgK7RM7en4Wda-82" value="" style="endArrow=classic;html=1;rounded=0;" edge="1" parent="1">
          <mxGeometry width="50" height="50" relative="1" as="geometry">
            <mxPoint x="110" y="1080" as="sourcePoint" />
            <mxPoint x="410" y="1080" as="targetPoint" />
          </mxGeometry>
        </mxCell>
        <mxCell id="5XuNz84cgK7RM7en4Wda-83" value="19. 특정 To-Do 정보 선택 및 완료 요청" style="edgeLabel;html=1;align=left;verticalAlign=middle;resizable=0;points=[];fontSize=13;fontStyle=1" vertex="1" connectable="0" parent="5XuNz84cgK7RM7en4Wda-82">
          <mxGeometry x="-0.2454" y="4" relative="1" as="geometry">
            <mxPoint x="-113" y="-6" as="offset" />
          </mxGeometry>
        </mxCell>
        <mxCell id="5XuNz84cgK7RM7en4Wda-84" value="" style="endArrow=classic;html=1;rounded=0;" edge="1" parent="1">
          <mxGeometry width="50" height="50" relative="1" as="geometry">
            <mxPoint x="410" y="1110" as="sourcePoint" />
            <mxPoint x="740" y="1110" as="targetPoint" />
          </mxGeometry>
        </mxCell>
        <mxCell id="5XuNz84cgK7RM7en4Wda-85" value="20. 특정 To-Do 레코드 상태 &#39;완료&#39; 수정" style="edgeLabel;html=1;align=left;verticalAlign=middle;resizable=0;points=[];fontSize=13;fontStyle=1" vertex="1" connectable="0" parent="1">
          <mxGeometry x="410" y="1100" as="geometry" />
        </mxCell>
        <mxCell id="5XuNz84cgK7RM7en4Wda-86" value="" style="endArrow=classic;html=1;rounded=0;" edge="1" parent="1">
          <mxGeometry width="50" height="50" relative="1" as="geometry">
            <mxPoint x="740" y="1170" as="sourcePoint" />
            <mxPoint x="410" y="1170" as="targetPoint" />
          </mxGeometry>
        </mxCell>
        <mxCell id="5XuNz84cgK7RM7en4Wda-87" value="21. To-Do 수정 완료" style="edgeLabel;html=1;align=right;verticalAlign=middle;resizable=0;points=[];fontSize=13;fontStyle=1" vertex="1" connectable="0" parent="1">
          <mxGeometry x="738" y="1160" as="geometry" />
        </mxCell>
        <mxCell id="5XuNz84cgK7RM7en4Wda-88" value="" style="endArrow=classic;html=1;rounded=0;" edge="1" parent="1">
          <mxGeometry width="50" height="50" relative="1" as="geometry">
            <mxPoint x="410" y="1200" as="sourcePoint" />
            <mxPoint x="110" y="1200" as="targetPoint" />
          </mxGeometry>
        </mxCell>
        <mxCell id="5XuNz84cgK7RM7en4Wda-89" value="22. To-Do 전체 리스트 페이지 리다이렉션" style="edgeLabel;html=1;align=right;verticalAlign=middle;resizable=0;points=[];fontSize=13;fontStyle=1" vertex="1" connectable="0" parent="1">
          <mxGeometry x="410" y="1190" as="geometry" />
        </mxCell>
        <mxCell id="5XuNz84cgK7RM7en4Wda-90" value="완료" style="shape=umlFrame;whiteSpace=wrap;html=1;pointerEvents=0;fillColor=#e1d5e7;strokeColor=#9673a6;" vertex="1" parent="1">
          <mxGeometry x="49" y="1038" width="730" height="312" as="geometry" />
        </mxCell>
        <mxCell id="5XuNz84cgK7RM7en4Wda-91" value="" style="endArrow=classic;html=1;rounded=0;" edge="1" parent="1">
          <mxGeometry width="50" height="50" relative="1" as="geometry">
            <mxPoint x="109" y="1410" as="sourcePoint" />
            <mxPoint x="409" y="1410" as="targetPoint" />
          </mxGeometry>
        </mxCell>
        <mxCell id="5XuNz84cgK7RM7en4Wda-92" value="19. 특정 To-Do 정보 선택 및 삭제 요청" style="edgeLabel;html=1;align=left;verticalAlign=middle;resizable=0;points=[];fontSize=13;fontStyle=1" vertex="1" connectable="0" parent="5XuNz84cgK7RM7en4Wda-91">
          <mxGeometry x="-0.2454" y="4" relative="1" as="geometry">
            <mxPoint x="-113" y="-6" as="offset" />
          </mxGeometry>
        </mxCell>
        <mxCell id="5XuNz84cgK7RM7en4Wda-93" value="" style="endArrow=classic;html=1;rounded=0;" edge="1" parent="1">
          <mxGeometry width="50" height="50" relative="1" as="geometry">
            <mxPoint x="409" y="1440" as="sourcePoint" />
            <mxPoint x="739" y="1440" as="targetPoint" />
          </mxGeometry>
        </mxCell>
        <mxCell id="5XuNz84cgK7RM7en4Wda-94" value="20. 특정 To-Do 삭제" style="edgeLabel;html=1;align=left;verticalAlign=middle;resizable=0;points=[];fontSize=13;fontStyle=1" vertex="1" connectable="0" parent="1">
          <mxGeometry x="409" y="1430" as="geometry" />
        </mxCell>
        <mxCell id="5XuNz84cgK7RM7en4Wda-95" value="" style="endArrow=classic;html=1;rounded=0;" edge="1" parent="1">
          <mxGeometry width="50" height="50" relative="1" as="geometry">
            <mxPoint x="739" y="1500" as="sourcePoint" />
            <mxPoint x="409" y="1500" as="targetPoint" />
          </mxGeometry>
        </mxCell>
        <mxCell id="5XuNz84cgK7RM7en4Wda-96" value="21. To-Do 삭제 완료" style="edgeLabel;html=1;align=right;verticalAlign=middle;resizable=0;points=[];fontSize=13;fontStyle=1" vertex="1" connectable="0" parent="1">
          <mxGeometry x="737" y="1490" as="geometry" />
        </mxCell>
        <mxCell id="5XuNz84cgK7RM7en4Wda-97" value="" style="endArrow=classic;html=1;rounded=0;" edge="1" parent="1">
          <mxGeometry width="50" height="50" relative="1" as="geometry">
            <mxPoint x="409" y="1530" as="sourcePoint" />
            <mxPoint x="109" y="1530" as="targetPoint" />
          </mxGeometry>
        </mxCell>
        <mxCell id="5XuNz84cgK7RM7en4Wda-98" value="22. To-Do 전체 리스트 페이지 리다이렉션" style="edgeLabel;html=1;align=right;verticalAlign=middle;resizable=0;points=[];fontSize=13;fontStyle=1" vertex="1" connectable="0" parent="1">
          <mxGeometry x="409" y="1520" as="geometry" />
        </mxCell>
        <mxCell id="5XuNz84cgK7RM7en4Wda-99" value="삭제" style="shape=umlFrame;whiteSpace=wrap;html=1;pointerEvents=0;fillColor=#f8cecc;strokeColor=#b85450;" vertex="1" parent="1">
          <mxGeometry x="49" y="1361" width="730" height="202" as="geometry" />
        </mxCell>
        <mxCell id="5XuNz84cgK7RM7en4Wda-109" value="" style="endArrow=classic;html=1;rounded=0;edgeStyle=orthogonalEdgeStyle;curved=1;" edge="1" parent="1">
          <mxGeometry width="50" height="50" relative="1" as="geometry">
            <mxPoint x="410" y="1221" as="sourcePoint" />
            <mxPoint x="410" y="1261" as="targetPoint" />
            <Array as="points">
              <mxPoint x="410" y="1221" />
              <mxPoint x="380" y="1221" />
              <mxPoint x="380" y="1261" />
            </Array>
          </mxGeometry>
        </mxCell>
        <mxCell id="5XuNz84cgK7RM7en4Wda-111" value="" style="endArrow=classic;html=1;rounded=0;" edge="1" parent="1">
          <mxGeometry width="50" height="50" relative="1" as="geometry">
            <mxPoint x="410" y="1290" as="sourcePoint" />
            <mxPoint x="740" y="1290" as="targetPoint" />
          </mxGeometry>
        </mxCell>
        <mxCell id="5XuNz84cgK7RM7en4Wda-112" value="24. 해당 회원 레코드 조회, To-Do 완료수 체크" style="edgeLabel;html=1;align=left;verticalAlign=middle;resizable=0;points=[];fontSize=13;fontStyle=1" vertex="1" connectable="0" parent="1">
          <mxGeometry x="410" y="1280" as="geometry" />
        </mxCell>
        <mxCell id="5XuNz84cgK7RM7en4Wda-113" value="" style="endArrow=classic;html=1;rounded=0;" edge="1" parent="1">
          <mxGeometry width="50" height="50" relative="1" as="geometry">
            <mxPoint x="740" y="1320" as="sourcePoint" />
            <mxPoint x="410" y="1320" as="targetPoint" />
          </mxGeometry>
        </mxCell>
        <mxCell id="5XuNz84cgK7RM7en4Wda-114" value="25. To-Do 완료 수 체크 완료, 조건 만족 시 등급 상승" style="edgeLabel;html=1;align=right;verticalAlign=middle;resizable=0;points=[];fontSize=13;fontStyle=1" vertex="1" connectable="0" parent="1">
          <mxGeometry x="738" y="1310" as="geometry" />
        </mxCell>
        <mxCell id="5XuNz84cgK7RM7en4Wda-117" value="" style="endArrow=classic;html=1;rounded=0;" edge="1" parent="1">
          <mxGeometry width="50" height="50" relative="1" as="geometry">
            <mxPoint x="410" y="1340" as="sourcePoint" />
            <mxPoint x="110" y="1340" as="targetPoint" />
          </mxGeometry>
        </mxCell>
        <mxCell id="5XuNz84cgK7RM7en4Wda-118" value="26. (조건 만족 시) 등급 상승 반영" style="edgeLabel;html=1;align=right;verticalAlign=middle;resizable=0;points=[];fontSize=13;fontStyle=1" vertex="1" connectable="0" parent="1">
          <mxGeometry x="410" y="1330" as="geometry" />
        </mxCell>
        <mxCell id="5XuNz84cgK7RM7en4Wda-119" value="23. 완료수에 따른 등급 상승 조건 체크" style="edgeLabel;html=1;align=right;verticalAlign=middle;resizable=0;points=[];fontSize=13;fontStyle=1" vertex="1" connectable="0" parent="1">
          <mxGeometry x="375" y="1240" as="geometry" />
        </mxCell>
      </root>
    </mxGraphModel>
  </diagram>
</mxfile>
